<?xml version="1.0" encoding="UTF-8"?>
<!DOCTYPE svg PUBLIC "-//W3C//DTD SVG 1.1//EN" "http://www.w3.org/Graphics/SVG/1.1/DTD/svg11.dtd">
<!-- Creator: CorelDRAW 2023 -->
<svg xmlns="http://www.w3.org/2000/svg" xml:space="preserve" width="600px" height="125px" version="1.1" style="shape-rendering:geometricPrecision; text-rendering:geometricPrecision; image-rendering:optimizeQuality; fill-rule:evenodd; clip-rule:evenodd"
viewBox="0 0 600 124.62"
 xmlns:xlink="http://www.w3.org/1999/xlink"
 xmlns:xodm="http://www.corel.com/coreldraw/odm/2003">
 <defs>
  <style type="text/css">
   <![CDATA[
    .fil7 {fill:#0000FE}
    .fil4 {fill:#00FF01}
    .fil6 {fill:#595959}
    .fil8 {fill:#603814}
    .fil5 {fill:#ED008C}
    .fil3 {fill:#F36523}
    .fil2 {fill:#FFFF01}
    .fil1 {fill:#FEFEFE;fill-rule:nonzero}
    .fil0 {fill:#373435;fill-rule:nonzero}
   ]]>
  </style>
 </defs>
 <g id="Layer_x0020_1">
  <metadata id="CorelCorpID_0Corel-Layer"/>
  <path class="fil0" d="M11.28 115.01l0 -73.74c0,-0.56 0.17,-1.09 0.52,-1.59 0.36,-0.49 0.92,-0.74 1.69,-0.74l35.08 0c3.73,0 7.13,0.76 10.19,2.28 3.07,1.51 5.71,3.5 7.93,5.96 2.21,2.47 3.92,5.27 5.12,8.4 1.2,3.14 1.8,6.36 1.8,9.67 0,4.23 -1.18,8.28 -3.54,12.15 -2.36,3.87 -5.48,7.04 -9.35,9.51l15.1 28.1c0.36,0.56 0.43,1.09 0.22,1.58 -0.22,0.5 -0.71,0.74 -1.48,0.74l-19.02 0c-0.77,0 -1.34,-0.14 -1.69,-0.42 -0.35,-0.28 -0.74,-0.88 -1.16,-1.8l-12.57 -23.87 -8.45 0 0 23.77c0,1.55 -0.78,2.32 -2.33,2.32l-15.85 0c-1.47,0 -2.21,-0.77 -2.21,-2.32zm32.11 -59.8l-11.72 0 0 19.13 11.72 0c1.41,0 2.68,-0.27 3.81,-0.8 1.12,-0.53 2.11,-1.23 2.95,-2.11 0.85,-0.88 1.5,-1.9 1.96,-3.06 0.46,-1.17 0.68,-2.35 0.68,-3.54 0,-1.13 -0.22,-2.27 -0.68,-3.44 -0.46,-1.16 -1.11,-2.2 -1.96,-3.11 -0.84,-0.92 -1.83,-1.66 -2.95,-2.22 -1.13,-0.56 -2.4,-0.85 -3.81,-0.85zm77.12 57.79c-4.79,3.8 -10.32,5.71 -16.58,5.71 -3.67,0 -7.14,-0.71 -10.41,-2.12 -3.27,-1.41 -6.14,-3.34 -8.61,-5.81 -2.46,-2.46 -4.4,-5.33 -5.81,-8.61 -1.41,-3.27 -2.11,-6.81 -2.11,-10.62 0,-3.59 0.65,-7.02 1.95,-10.3 1.3,-3.27 3.08,-6.16 5.34,-8.66 2.25,-2.5 4.96,-4.49 8.13,-5.97 3.17,-1.48 6.59,-2.21 10.25,-2.21 3.45,0 6.72,0.65 9.82,1.95 3.1,1.3 5.83,3.1 8.19,5.39 2.36,2.29 4.23,4.96 5.6,8.03 1.37,3.06 2.06,6.35 2.06,9.87 0,2.47 -0.55,4.25 -1.64,5.34 -1.09,1.09 -3.22,1.64 -6.39,1.64l-26.09 0c0.7,2.46 2.04,4.29 4.01,5.49 1.97,1.2 3.8,1.8 5.5,1.8 1.4,0 2.83,-0.22 4.27,-0.64 1.45,-0.42 2.63,-0.91 3.54,-1.48 0.78,-0.35 1.34,-0.68 1.69,-1 0.35,-0.32 0.78,-0.48 1.27,-0.48 0.56,0 1.16,0.36 1.8,1.06l5.28 7.61c0.35,0.42 0.53,0.95 0.53,1.58 0,0.92 -0.53,1.73 -1.59,2.43zm-17.53 -33.8c-1.91,0 -3.6,0.59 -5.08,1.79 -1.47,1.2 -2.6,2.57 -3.38,4.12l17.65 0c-0.85,-1.48 -1.98,-2.83 -3.38,-4.07 -1.41,-1.23 -3.35,-1.84 -5.81,-1.84zm36.44 35.49l0 -46.06c0,-1.13 0.23,-1.94 0.69,-2.43 0.46,-0.49 1.28,-0.74 2.48,-0.74l6.87 0c1.97,0 3.4,0.72 4.28,2.17 0.88,1.44 1.56,3.08 2.06,4.91 0.63,-0.78 1.53,-1.6 2.69,-2.48 1.16,-0.88 2.48,-1.71 3.96,-2.49 1.48,-0.77 3.07,-1.42 4.76,-1.95 1.69,-0.53 3.41,-0.79 5.17,-0.79 4.02,0 7.36,0.53 10.04,1.58 2.68,1.06 4.84,2.66 6.5,4.81 1.65,2.15 2.81,4.86 3.48,8.13 0.67,3.28 1.01,7.1 1.01,11.47l0 23.87c0,0.85 -0.27,1.5 -0.8,1.96 -0.52,0.45 -1.18,0.68 -1.95,0.68l-13.21 0c-1.83,0 -2.74,-0.84 -2.74,-2.53l0 -25.25c0,-2.47 -0.6,-4.32 -1.8,-5.55 -1.2,-1.23 -3.13,-1.85 -5.81,-1.85 -0.84,0 -1.76,0.16 -2.75,0.48 -0.98,0.32 -1.91,0.77 -2.79,1.37 -0.89,0.6 -1.64,1.34 -2.28,2.22 -0.63,0.88 -0.98,1.88 -1.05,3.01l0 25.46c0,0.92 -0.21,1.59 -0.64,2.01 -0.42,0.42 -1.19,0.63 -2.32,0.63l-13.1 0c-0.99,0 -1.69,-0.24 -2.11,-0.74 -0.43,-0.49 -0.64,-1.12 -0.64,-1.9zm67.51 -50.18l0 -13.42c0,-0.7 0.23,-1.33 0.69,-1.9 0.45,-0.56 1.17,-0.91 2.16,-1.05l13.1 -2.12c1.55,0 2.32,0.88 2.32,2.64l0 15.85 4.65 0c0.92,0 1.66,0.25 2.22,0.74 0.56,0.49 0.85,1.27 0.85,2.32l0 8.24c0,0.85 -0.27,1.59 -0.8,2.22 -0.52,0.64 -1.28,0.95 -2.27,0.95l-4.65 0 0 35.71c0,1.76 -0.98,2.64 -2.95,2.64l-12.57 0c-1.84,0 -2.75,-0.88 -2.75,-2.64l0 -35.71 -2.96 0c-2.04,0 -3.06,-1.05 -3.06,-3.17l0 -8.24c0,-2.04 1.02,-3.06 3.06,-3.06l2.96 0z"/>
  <path class="fil0" d="M257.15 115.11l0 -73.74c0,-1.62 0.78,-2.43 2.32,-2.43l33.49 0c3.1,0 6.03,0.59 8.77,1.75 2.75,1.16 5.14,2.78 7.19,4.86 2.04,2.08 3.66,4.49 4.86,7.23 1.19,2.75 1.79,5.71 1.79,8.88 0,5.28 -1.58,9.79 -4.75,13.52 2.46,2.32 4.45,5.09 5.97,8.29 1.51,3.21 2.27,6.61 2.27,10.2 0,3.17 -0.62,6.2 -1.85,9.08 -1.23,2.89 -2.91,5.41 -5.02,7.56 -2.11,2.14 -4.56,3.85 -7.34,5.12 -2.78,1.27 -5.72,1.9 -8.82,1.9l-36.56 0c-1.54,0 -2.32,-0.74 -2.32,-2.22zm40.99 -22.29c0,-1.05 -0.21,-2.11 -0.63,-3.17 -0.43,-1.05 -0.99,-1.99 -1.69,-2.8 -0.71,-0.81 -1.55,-1.47 -2.54,-2 -0.99,-0.53 -2.08,-0.8 -3.27,-0.8l-12.37 0 0 17.65 12.37 0c2.32,0 4.26,-0.92 5.81,-2.75 1.55,-1.83 2.32,-3.87 2.32,-6.13zm-2.85 -30.63c0,-2.12 -0.74,-3.93 -2.22,-5.44 -1.48,-1.52 -3.38,-2.28 -5.71,-2.28l-9.72 0 0 15.32 9.51 0c2.47,0 4.44,-0.7 5.92,-2.11 1.48,-1.41 2.22,-3.24 2.22,-5.49zm34.75 52.5l0 -46.48c0,-0.78 0.23,-1.43 0.69,-1.96 0.46,-0.52 1.11,-0.79 1.95,-0.79l13.21 0c0.56,0 1.2,0.25 1.9,0.74 0.71,0.49 1.06,1.16 1.06,2.01l0 46.48c0,1.76 -0.99,2.64 -2.96,2.64l-13.21 0c-1.76,0 -2.64,-0.88 -2.64,-2.64zm-0.52 -65.6c0,-2.68 0.93,-4.95 2.8,-6.82 1.86,-1.86 4.13,-2.8 6.81,-2.8 2.75,0 5.04,0.94 6.87,2.8 1.83,1.87 2.74,4.14 2.74,6.82 0,2.67 -0.91,4.94 -2.74,6.81 -1.83,1.87 -4.12,2.8 -6.87,2.8 -2.68,0 -4.95,-0.93 -6.81,-2.8 -1.87,-1.87 -2.8,-4.14 -2.8,-6.81zm33.59 65.81l0 -73.21c0,-0.77 0.16,-1.42 0.48,-1.95 0.31,-0.53 1.07,-0.8 2.27,-0.8l13.31 0c0.77,0 1.41,0.29 1.9,0.85 0.49,0.56 0.74,1.13 0.74,1.69l0 40.88c2.25,-2.6 4.54,-5.17 6.87,-7.71 2.32,-2.53 4.64,-5.1 6.97,-7.71 0.7,-0.77 1.55,-1.16 2.53,-1.16l16.59 0c1.48,0 2.22,0.56 2.22,1.69 -0.07,0.35 -0.13,0.62 -0.16,0.79 -0.04,0.18 -0.23,0.44 -0.58,0.79l-16.69 17.65 21.02 26.93 -0.11 0c0.64,0.71 0.96,1.41 0.96,2.12 0,0.63 -0.16,1.05 -0.48,1.27 -0.32,0.21 -0.83,0.31 -1.53,0.31l-17.22 0c-0.49,0 -1.06,-0.16 -1.69,-0.47 -0.64,-0.32 -1.16,-0.87 -1.59,-1.64l0 0.11 -13.2 -18.92 -3.91 4.02 0 14.26c0,0.56 -0.19,1.15 -0.58,1.74 -0.39,0.6 -1.08,0.9 -2.06,0.9l-13.63 0c-0.84,0 -1.46,-0.3 -1.85,-0.9 -0.39,-0.59 -0.58,-1.1 -0.58,-1.53zm99.52 -1.9c-4.79,3.8 -10.32,5.71 -16.59,5.71 -3.66,0 -7.13,-0.71 -10.41,-2.12 -3.27,-1.41 -6.14,-3.34 -8.61,-5.81 -2.46,-2.46 -4.4,-5.33 -5.81,-8.61 -1.4,-3.27 -2.11,-6.81 -2.11,-10.62 0,-3.59 0.65,-7.02 1.96,-10.3 1.3,-3.27 3.08,-6.16 5.33,-8.66 2.25,-2.5 4.97,-4.49 8.14,-5.97 3.16,-1.48 6.58,-2.21 10.24,-2.21 3.45,0 6.73,0.65 9.83,1.95 3.1,1.3 5.83,3.1 8.18,5.39 2.36,2.29 4.23,4.96 5.6,8.03 1.38,3.06 2.06,6.35 2.06,9.87 0,2.47 -0.54,4.25 -1.63,5.34 -1.1,1.09 -3.23,1.64 -6.4,1.64l-26.09 0c0.71,2.46 2.04,4.29 4.02,5.49 1.97,1.2 3.8,1.8 5.49,1.8 1.41,0 2.83,-0.22 4.28,-0.64 1.44,-0.42 2.62,-0.91 3.54,-1.48 0.77,-0.35 1.33,-0.68 1.69,-1 0.35,-0.32 0.77,-0.48 1.26,-0.48 0.57,0 1.17,0.36 1.8,1.06l5.28 7.61c0.35,0.42 0.53,0.95 0.53,1.58 0,0.92 -0.53,1.73 -1.58,2.43zm-17.54 -33.8c-1.9,0 -3.59,0.59 -5.07,1.79 -1.48,1.2 -2.61,2.57 -3.38,4.12l17.64 0c-0.85,-1.48 -1.97,-2.83 -3.38,-4.07 -1.41,-1.23 -3.35,-1.84 -5.81,-1.84z"/>
  <path class="fil1" d="M398.28 54.19l0 -40.68c0,-0.89 0.42,-1.34 1.28,-1.34l18.47 0c1.71,0 3.33,0.32 4.84,0.97 1.52,0.64 2.84,1.53 3.96,2.68 1.13,1.14 2.02,2.47 2.69,3.99 0.66,1.51 0.99,3.15 0.99,4.89 0,2.92 -0.88,5.4 -2.63,7.46 1.36,1.29 2.46,2.81 3.3,4.58 0.83,1.77 1.25,3.64 1.25,5.62 0,1.75 -0.34,3.42 -1.02,5.02 -0.68,1.59 -1.6,2.98 -2.77,4.16 -1.17,1.19 -2.52,2.13 -4.05,2.83 -1.54,0.7 -3.16,1.05 -4.87,1.05l-20.16 0c-0.86,0 -1.28,-0.41 -1.28,-1.23zm22.61 -12.29c0,-0.59 -0.12,-1.17 -0.35,-1.75 -0.23,-0.58 -0.54,-1.1 -0.93,-1.55 -0.39,-0.44 -0.86,-0.81 -1.4,-1.1 -0.55,-0.29 -1.15,-0.44 -1.81,-0.44l-6.82 0 0 9.73 6.82 0c1.28,0 2.35,-0.5 3.21,-1.51 0.85,-1.01 1.28,-2.14 1.28,-3.38zm-1.57 -16.9c0,-1.17 -0.41,-2.17 -1.23,-3.01 -0.81,-0.83 -1.86,-1.25 -3.15,-1.25l-5.36 0 0 8.45 5.25 0c1.36,0 2.45,-0.39 3.26,-1.16 0.82,-0.78 1.23,-1.79 1.23,-3.03zm19.17 28.73l0 -25.3c0,-0.58 0.19,-1 0.58,-1.25 0.39,-0.25 0.8,-0.38 1.23,-0.38l4.83 0c0.55,0 0.91,0.19 1.08,0.56 0.18,0.36 0.38,0.76 0.61,1.19 0,0.04 0.05,0.18 0.15,0.41 0.1,0.23 0.2,0.49 0.32,0.79 0.12,0.29 0.22,0.56 0.32,0.81 0.1,0.25 0.17,0.4 0.21,0.44 0.77,-1.13 1.66,-2.16 2.65,-3.09 0.99,-0.93 2.26,-1.4 3.81,-1.4 0.82,0 1.55,0.06 2.19,0.18 0.64,0.11 1.24,0.29 1.81,0.52 0.56,0.23 1.11,0.53 1.66,0.9 0.54,0.37 1.14,0.79 1.8,1.26 0.63,0.35 0.94,0.79 0.94,1.34 0,0.42 -0.12,0.79 -0.35,1.1l-3.27 4.96c-0.42,0.7 -0.97,1.05 -1.63,1.05 -0.31,0 -0.6,-0.14 -0.87,-0.41 -0.66,-0.62 -1.23,-1.07 -1.69,-1.34 -0.47,-0.27 -1.11,-0.41 -1.93,-0.41 -1.16,0 -2.13,0.38 -2.91,1.14 -0.78,0.75 -1.17,1.64 -1.17,2.65l0 14.28c0,1.12 -0.6,1.69 -1.8,1.69l-6.82 0c-1.17,0 -1.75,-0.57 -1.75,-1.69zm55.37 0.06c0,0.54 -0.19,0.95 -0.56,1.22 -0.37,0.27 -0.76,0.41 -1.19,0.41l-5.65 0c-0.67,0 -1.08,-0.16 -1.26,-0.47 -0.17,-0.31 -0.36,-0.72 -0.55,-1.22l-0.64 -1.69c-0.27,0.39 -0.58,0.81 -0.91,1.28 -0.33,0.47 -0.72,0.89 -1.19,1.28 -0.47,0.39 -1.03,0.71 -1.69,0.96 -0.66,0.26 -1.48,0.38 -2.45,0.38l-0.35 0c-2.1,0 -4.01,-0.37 -5.74,-1.1 -1.73,-0.74 -3.22,-1.77 -4.49,-3.09 -1.26,-1.32 -2.24,-2.89 -2.94,-4.7 -0.7,-1.8 -1.05,-3.75 -1.05,-5.85 0,-2.18 0.34,-4.17 1.02,-5.98 0.68,-1.8 1.65,-3.36 2.92,-4.66 1.26,-1.3 2.76,-2.32 4.51,-3.06 1.75,-0.74 3.67,-1.11 5.77,-1.11 2.02,0 3.63,0.51 4.84,1.52 1.2,1.01 2.06,2.14 2.56,3.38l0.88 -2.74c0.27,-0.78 0.48,-1.25 0.64,-1.43 0.15,-0.17 0.54,-0.26 1.16,-0.26l4.61 0c0.47,0 0.87,0.15 1.22,0.44 0.35,0.29 0.53,0.69 0.53,1.19l0 25.3zm-20.34 -12.48c0,1.56 0.45,2.85 1.37,3.88 0.91,1.03 2.1,1.54 3.58,1.54 1.52,0 2.77,-0.51 3.76,-1.54 0.99,-1.03 1.49,-2.32 1.49,-3.88 0,-1.51 -0.5,-2.8 -1.49,-3.87 -0.99,-1.07 -2.24,-1.6 -3.76,-1.6 -1.48,0 -2.67,0.53 -3.58,1.6 -0.92,1.07 -1.37,2.36 -1.37,3.87zm32.46 4.2c1.86,1.52 3.46,2.27 4.78,2.27 0.93,0 1.74,-0.08 2.42,-0.26 0.68,-0.17 1.02,-0.53 1.02,-1.08 0,-0.54 -0.36,-0.96 -1.08,-1.25 -0.72,-0.29 -1.7,-0.61 -2.94,-0.96 -1.91,-0.51 -3.51,-1.09 -4.81,-1.75 -1.3,-0.66 -2.35,-1.4 -3.15,-2.21 -0.8,-0.82 -1.36,-1.7 -1.69,-2.63 -0.33,-0.93 -0.5,-1.94 -0.5,-3.03 0,-1.24 0.31,-2.37 0.91,-3.38 0.6,-1.01 1.43,-1.88 2.47,-2.62 1.05,-0.74 2.29,-1.3 3.71,-1.69 1.41,-0.39 2.96,-0.58 4.63,-0.58 2.02,0 3.9,0.23 5.65,0.7 1.75,0.46 3.38,1.43 4.9,2.91 0.19,0.27 0.29,0.52 0.29,0.76 0,0.35 -0.19,0.7 -0.58,1.05 -0.16,0.15 -0.42,0.41 -0.79,0.78 -0.37,0.37 -0.75,0.76 -1.14,1.17 -0.39,0.41 -0.75,0.8 -1.1,1.16 -0.35,0.37 -0.61,0.64 -0.76,0.79 -0.23,0.23 -0.53,0.35 -0.88,0.35 -0.42,0 -0.85,-0.21 -1.28,-0.64 -0.5,-0.51 -1.16,-0.88 -1.98,-1.14 -0.82,-0.25 -1.53,-0.38 -2.16,-0.38 -0.62,0 -1.2,0.14 -1.74,0.41 -0.55,0.27 -0.82,0.66 -0.82,1.17 0,0.39 0.15,0.69 0.44,0.9 0.29,0.22 0.65,0.39 1.08,0.53 0.42,0.13 0.88,0.24 1.36,0.32 0.49,0.07 0.93,0.17 1.32,0.29 1.43,0.43 2.78,0.87 4.05,1.34 1.26,0.46 2.36,1.03 3.29,1.69 0.93,0.66 1.67,1.47 2.21,2.45 0.55,0.97 0.82,2.19 0.82,3.67 0,1.51 -0.34,2.85 -1.02,4.02 -0.68,1.16 -1.6,2.15 -2.77,2.94 -1.16,0.8 -2.53,1.4 -4.11,1.81 -1.57,0.41 -3.23,0.61 -4.98,0.61 -2.02,0 -3.96,-0.36 -5.83,-1.08 -1.86,-0.72 -3.51,-1.85 -4.95,-3.41 -0.39,-0.38 -0.58,-0.79 -0.58,-1.22 0,-0.35 0.15,-0.68 0.46,-0.99l3.85 -4.02c0.15,-0.16 0.3,-0.26 0.43,-0.29 0.14,-0.04 0.27,-0.08 0.38,-0.12 0.2,0 0.38,0.06 0.56,0.17 0.17,0.12 0.38,0.28 0.61,0.47zm22.55 -4.31c0,-2.06 0.4,-4 1.2,-5.83 0.8,-1.83 1.88,-3.42 3.26,-4.78 1.38,-1.36 2.99,-2.43 4.84,-3.21 1.85,-0.77 3.84,-1.16 5.97,-1.16 2.1,0 4.07,0.39 5.92,1.16 1.84,0.78 3.46,1.85 4.84,3.21 1.38,1.36 2.46,2.95 3.26,4.78 0.8,1.83 1.19,3.77 1.19,5.83 0,2.06 -0.39,3.99 -1.19,5.8 -0.8,1.8 -1.88,3.37 -3.26,4.69 -1.38,1.32 -3,2.36 -4.84,3.12 -1.85,0.75 -3.82,1.13 -5.92,1.13 -2.13,0 -4.12,-0.38 -5.97,-1.13 -1.85,-0.76 -3.46,-1.8 -4.84,-3.12 -1.38,-1.32 -2.46,-2.89 -3.26,-4.69 -0.8,-1.81 -1.2,-3.74 -1.2,-5.8zm10.38 0.11c0,1.56 0.44,2.85 1.34,3.88 0.89,1.03 2.1,1.54 3.61,1.54 1.48,0 2.66,-0.51 3.56,-1.54 0.89,-1.03 1.34,-2.32 1.34,-3.88 0,-1.51 -0.45,-2.8 -1.34,-3.87 -0.9,-1.07 -2.08,-1.6 -3.56,-1.6 -1.51,0 -2.72,0.53 -3.61,1.6 -0.9,1.07 -1.34,2.36 -1.34,3.87zm30.01 13.53c-0.39,-0.55 -0.66,-1.11 -0.81,-1.69 -1.63,-4.12 -3.29,-8.22 -4.96,-12.3 -1.67,-4.08 -3.32,-8.18 -4.95,-12.3 -0.04,0 -0.07,-0.08 -0.09,-0.23 -0.02,-0.16 -0.03,-0.31 -0.03,-0.47 0,-0.7 0.43,-1.05 1.28,-1.05l8.34 0c0.85,0 1.42,0.45 1.69,1.34 0.35,1.17 0.73,2.44 1.14,3.82 0.4,1.38 0.81,2.75 1.22,4.11 0.41,1.36 0.8,2.63 1.17,3.82 0.36,1.18 0.65,2.16 0.84,2.94l4.31 -14.8c0.31,-0.82 0.9,-1.23 1.75,-1.23l8.22 0c0.54,0 0.91,0.1 1.11,0.29 0.19,0.2 0.29,0.47 0.29,0.82 0,0.19 -0.02,0.35 -0.06,0.47l-10.08 24.77c-0.16,0.46 -0.38,0.96 -0.67,1.48 -0.29,0.53 -0.75,0.79 -1.37,0.79l-7 0c-0.39,0 -0.68,-0.05 -0.87,-0.15 -0.2,-0.09 -0.35,-0.24 -0.47,-0.43z"/>
  <path class="fil1" d="M268.64 115.24c0,0.87 -0.3,1.53 -0.89,1.97 -0.6,0.43 -1.24,0.65 -1.92,0.65l-9.1 0c-1.06,0 -1.73,-0.25 -2.01,-0.75 -0.28,-0.5 -0.58,-1.15 -0.89,-1.97l-1.03 -2.71c-0.44,0.62 -0.93,1.31 -1.46,2.06 -0.53,0.75 -1.17,1.44 -1.92,2.06 -0.75,0.62 -1.66,1.14 -2.72,1.55 -1.06,0.4 -2.37,0.61 -3.93,0.61l-0.57 0c-3.37,0 -6.45,-0.6 -9.23,-1.79 -2.78,-1.18 -5.19,-2.84 -7.22,-4.96 -2.03,-2.13 -3.61,-4.64 -4.73,-7.55 -1.13,-2.91 -1.69,-6.05 -1.69,-9.42 0,-3.5 0.55,-6.7 1.64,-9.61 1.09,-2.9 2.66,-5.4 4.69,-7.5 2.03,-2.09 4.45,-3.73 7.26,-4.92 2.81,-1.19 5.91,-1.78 9.28,-1.78 3.25,0 5.85,0.81 7.78,2.44 1.94,1.62 3.32,3.43 4.13,5.43l1.4 -4.4c0.44,-1.25 0.78,-2.02 1.04,-2.3 0.24,-0.28 0.87,-0.42 1.87,-0.42l7.41 0c0.74,0 1.4,0.23 1.96,0.7 0.57,0.47 0.85,1.11 0.85,1.92l0 40.69zm-32.72 -20.06c0,2.5 0.74,4.58 2.21,6.23 1.46,1.66 3.39,2.49 5.76,2.49 2.44,0 4.45,-0.83 6.05,-2.49 1.59,-1.65 2.39,-3.73 2.39,-6.23 0,-2.44 -0.8,-4.52 -2.39,-6.24 -1.6,-1.72 -3.61,-2.57 -6.05,-2.57 -2.37,0 -4.3,0.85 -5.76,2.57 -1.47,1.72 -2.21,3.8 -2.21,6.24z"/>
  <polygon class="fil2" points="479.65,64.42 495.39,64.42 495.39,118.57 479.65,118.57 "/>
  <polygon class="fil3" points="495.39,64.42 511.13,64.42 511.13,118.57 495.39,118.57 "/>
  <polygon class="fil4" points="511.13,64.42 526.87,64.42 526.87,118.57 511.13,118.57 "/>
  <polygon class="fil5" points="526.87,64.42 542.61,64.42 542.61,118.57 526.87,118.57 "/>
  <polygon class="fil6" points="542.61,64.42 558.35,64.42 558.35,118.57 542.61,118.57 "/>
  <polygon class="fil7" points="558.35,64.42 574.1,64.42 574.1,118.57 558.35,118.57 "/>
  <polygon class="fil8" points="574.1,64.42 589.84,64.42 589.84,118.57 574.1,118.57 "/>
 </g>
</svg>
